<svg version="1.1" id="Layer_1" xmlns="http://www.w3.org/2000/svg" xmlns:xlink="http://www.w3.org/1999/xlink" x="0px" y="0px"
	 width="100%" viewBox="0 0 1024 1024" enable-background="new 0 0 1024 1024" xml:space="preserve">
<path fill="#000000" opacity="1.000000" stroke="none" 
	d="
M578.063599,588.055664 
	C548.688660,579.726135 519.707092,571.461670 490.687622,563.332581 
	C475.473816,559.070740 460.570160,553.530640 444.681244,551.975159 
	C424.477448,549.997375 404.310028,550.651184 384.524780,554.962708 
	C360.102936,560.284668 335.446930,564.205444 310.904449,568.798767 
	C307.182587,569.495239 305.757141,567.555603 304.226227,565.060608 
	C292.824127,546.478638 283.961884,526.807617 278.984833,505.516174 
	C269.561462,465.203766 272.244751,425.470612 285.515106,386.452362 
	C301.408142,339.722809 330.148499,302.385529 369.619324,273.061615 
	C378.360107,266.567902 378.248291,266.535706 384.457062,275.685272 
	C389.818420,283.586060 396.486237,290.349365 403.367004,296.917572 
	C427.349365,319.810699 451.372223,342.662201 475.215790,365.699188 
	C478.914337,369.272644 481.068665,369.186554 484.808746,365.516388 
	C507.282501,343.462921 530.056763,321.715698 552.717041,299.852142 
	C554.514587,298.117798 556.689819,296.545532 557.862976,294.437897 
	C561.002991,288.796814 565.802734,288.289612 571.475281,288.771729 
	C591.409180,290.466064 611.188843,293.084808 630.694397,297.626007 
	C632.937195,298.148132 634.597534,299.306305 636.153076,300.880707 
	C672.650208,337.819824 694.691101,381.808716 700.359070,433.596680 
	C706.989685,494.180389 689.347839,547.383789 650.805420,594.087036 
	C641.008728,605.958069 630.023621,616.581970 617.780701,625.899597 
	C615.978760,627.270996 614.295959,629.052185 611.398438,628.835571 
	C609.848816,626.133301 610.947998,623.059448 610.466248,620.206299 
	C607.928345,605.176086 599.646240,595.109619 585.099976,590.317749 
	C582.885620,589.588257 580.661072,588.889709 578.063599,588.055664 
M415.065979,460.622711 
	C417.829742,475.840393 420.642761,491.049469 423.316895,506.282867 
	C423.871674,509.443359 425.233063,510.808624 428.592590,510.802277 
	C466.077423,510.731323 503.562469,510.757111 541.047363,510.813904 
	C544.055298,510.818481 545.393738,509.831482 545.898743,506.626343 
	C548.538330,489.873260 550.426941,473.009430 553.503601,456.315552 
	C554.300232,451.992981 555.763489,450.149841 560.200623,450.511658 
	C565.128601,450.913513 566.879822,448.315033 566.706055,443.464722 
	C566.425903,435.644562 566.637146,427.807007 566.630066,419.976776 
	C566.621704,410.745361 566.512024,410.547974 557.137207,410.322083 
	C554.286438,410.253387 552.499634,409.616272 551.703613,406.527283 
	C544.636230,379.103302 507.994995,371.389954 488.866516,391.033752 
	C486.928741,393.023651 485.062866,395.083588 482.858459,397.436798 
	C480.550446,395.056061 478.525940,392.907440 476.437439,390.822937 
	C457.554138,371.975586 425.438354,378.458069 416.021637,403.445801 
	C413.859833,409.182190 411.130859,411.056854 405.599670,410.268463 
	C401.362518,409.664551 400.079346,411.846191 400.147369,415.803192 
	C400.304779,424.963593 400.203369,434.128326 400.213654,443.291321 
	C400.221893,450.651459 400.239655,450.929932 407.733582,450.570435 
	C412.583466,450.337769 414.489960,452.222900 414.388641,456.827545 
	C414.367126,457.805695 414.702545,458.791748 415.065979,460.622711 
M604.446472,446.240173 
	C600.688538,449.098175 597.358215,452.173096 597.227356,457.438354 
	C597.166626,459.881226 595.131531,460.032959 593.234436,460.256622 
	C587.194397,460.968750 583.664917,464.619598 582.189331,470.277832 
	C580.650696,476.177887 582.421082,481.094604 587.214050,484.902710 
	C588.221252,485.702942 589.667358,486.087799 589.938293,487.963348 
	C589.502808,488.576508 589.053406,489.498505 588.353088,490.151276 
	C579.800171,498.123047 584.755371,511.362732 595.673157,512.899963 
	C598.800354,513.340271 598.592957,515.375610 598.397400,517.689453 
	C597.845276,524.220520 600.716614,529.062988 606.377563,532.026184 
	C612.088196,535.015259 617.895630,534.494934 622.675598,530.195923 
	C625.687012,527.487427 627.475830,527.565491 630.464355,530.206909 
	C635.596558,534.743103 641.656128,534.866272 647.772583,532.068054 
	C653.323120,529.528809 656.434448,524.897888 656.290588,519.044678 
	C656.188721,514.898804 657.716370,513.690186 661.210205,512.633240 
	C671.430786,509.541260 675.899292,496.051086 666.253296,489.113129 
	C665.457886,488.541016 664.632874,487.885681 664.858643,485.885834 
	C664.872314,485.877808 665.485046,485.583832 666.025146,485.190125 
	C671.153687,481.451813 673.132202,476.412170 671.581482,470.294373 
	C670.087158,464.398834 666.196838,460.880676 660.043274,460.044220 
	C658.895386,459.888184 657.250793,459.708282 657.082092,458.549744 
	C656.314514,453.278381 653.384644,449.298981 649.018250,445.915131 
	C665.480713,439.550110 674.614685,426.256470 673.695557,410.450592 
	C663.089783,415.678436 652.439392,407.204468 641.137878,412.118683 
	C641.987366,398.743744 635.989197,389.658691 627.310669,381.636658 
	C622.509644,385.489288 618.871704,389.750000 615.863464,394.591217 
	C612.704529,399.674744 612.481689,405.495544 612.015259,411.843964 
	C601.287354,407.315369 591.050110,415.881775 580.921631,410.199951 
	C578.705139,424.256989 589.323975,439.694489 604.446472,446.240173 
M349.819977,416.466888 
	C349.262482,414.722290 348.678162,412.985687 348.155182,411.230804 
	C347.647919,409.528656 346.973145,408.087189 344.808807,408.232513 
	C342.461029,408.390167 342.511719,410.180725 342.237427,411.831543 
	C340.643127,421.426849 336.248474,429.706451 330.525116,437.459839 
	C324.880249,445.106812 317.841156,451.598389 312.572266,459.541382 
	C303.423096,473.333893 301.541412,487.839722 308.312103,503.156891 
	C316.077301,520.723938 335.031616,530.251831 354.569946,526.492004 
	C372.872650,522.969910 386.254578,506.265778 387.005371,487.259033 
	C387.566345,473.058624 381.817719,461.701691 372.960846,451.506073 
	C363.856720,441.025848 355.149017,430.347290 349.819977,416.466888 
M353.379486,332.203583 
	C343.530884,330.420959 335.498657,334.427216 331.471985,343.720001 
	C319.832947,370.580292 343.812714,393.651855 362.810669,394.717041 
	C384.895081,395.955322 404.212585,373.602539 400.493500,351.708282 
	C397.618500,334.783142 379.818512,325.126984 367.136200,336.051666 
	C366.699371,336.427948 365.977936,336.473785 364.696533,336.908752 
	C364.176910,328.189545 371.925842,321.361237 369.733429,312.073639 
	C361.941254,316.380280 364.433441,323.638702 363.387451,330.010468 
	C360.269318,327.543671 361.130157,324.771576 360.455963,322.491394 
	C359.669434,319.831177 357.826843,318.539062 354.611267,318.540161 
	C355.824310,325.180695 361.515808,329.258759 363.319122,336.179443 
	C359.570557,334.616333 356.854889,333.483917 353.379486,332.203583 
z"/>
<path fill="#000000" opacity="1.000000" stroke="none" 
	d="
M688.075745,602.028076 
	C694.625061,597.417236 701.251770,594.747131 708.989075,597.453430 
	C716.369995,600.034912 721.130005,605.117859 722.289856,612.878906 
	C723.456726,620.687622 720.434631,626.686646 713.667664,631.098022 
	C670.408752,659.298279 627.177734,687.542175 584.084290,715.993958 
	C578.887634,719.424988 574.289307,720.151001 568.309753,718.344727 
	C526.710205,705.778931 485.004303,693.565918 443.355011,681.164124 
	C420.384460,674.324219 397.465881,667.309692 374.498932,660.457458 
	C371.996277,659.710815 370.035187,658.609253 368.415314,656.477722 
	C351.987000,634.859375 335.476440,613.303589 319.004425,591.718384 
	C317.921844,590.299805 316.487640,589.034973 316.406403,587.125000 
	C317.507080,585.196289 319.399841,585.457520 320.929840,585.327271 
	C343.402008,583.414978 365.156189,577.582703 387.219940,573.420227 
	C416.121918,567.967712 444.630798,568.963562 473.085358,577.798523 
	C505.663361,587.913879 538.714478,596.504211 571.550415,605.791077 
	C576.822693,607.282288 582.248352,608.471130 586.355164,612.577393 
	C593.880554,620.101868 595.412842,629.558777 590.504822,638.579651 
	C585.403442,647.956055 575.274658,652.697815 564.619995,649.695435 
	C546.997803,644.729675 529.533264,639.201904 512.017395,633.861450 
	C491.952698,627.743958 471.896179,621.599182 451.854279,615.407532 
	C445.997009,613.598022 440.156830,615.821106 438.539337,620.674561 
	C436.704376,626.180481 439.415253,631.647034 445.570587,633.661682 
	C455.213989,636.817932 464.990601,639.566223 474.703857,642.510193 
	C498.602875,649.753784 522.480408,657.068848 546.403076,664.233459 
	C556.247803,667.182007 565.970276,670.895020 576.658752,668.928284 
	C584.264465,667.528748 590.660706,663.758484 596.911499,659.584106 
	C626.706116,639.686523 657.577515,621.495728 688.075745,602.028076 
z"/>
<path fill="#000000" opacity="1.000000" stroke="none" 
	d="
M514.393188,310.392212 
	C502.747833,321.531677 491.354156,332.424286 479.827240,343.444275 
	C467.517792,331.862976 455.682312,320.671600 443.782867,309.548645 
	C432.957031,299.429199 422.222961,289.202850 411.154114,279.354492 
	C398.791718,268.355255 390.638184,254.988541 389.528931,238.471008 
	C388.205231,218.760681 394.997101,201.920334 411.880280,190.664978 
	C427.603699,180.182800 444.351746,179.712967 461.110443,188.510635 
	C467.567230,191.900223 472.542908,197.052383 476.239929,203.395142 
	C477.132416,204.926285 477.549225,206.887726 479.534576,207.558472 
	C481.364838,207.348343 481.952148,205.860794 482.591217,204.548447 
	C493.262177,182.635559 520.267395,178.131577 539.207336,186.040726 
	C572.270203,199.847443 580.962708,245.899551 555.625122,272.089233 
	C542.653992,285.496552 528.368896,297.527618 514.393188,310.392212 
z"/>
<path fill="#000000" opacity="1.000000" stroke="none" 
	d="
M688.411133,198.352921 
	C694.303772,195.176208 700.034851,192.439682 705.409363,189.124969 
	C709.340210,186.700623 711.696106,187.304520 714.480225,190.942261 
	C729.255676,210.248093 744.251648,229.385178 759.179443,248.574356 
	C765.913208,257.230377 772.665894,265.871643 779.339355,274.429047 
	C778.618103,277.161865 776.297546,277.729553 774.497131,278.728210 
	C760.376648,286.560577 746.147339,294.198792 732.089905,302.141663 
	C727.817200,304.555847 725.197388,304.052490 722.028259,300.095612 
	C700.584900,273.321503 678.889099,246.749542 657.282104,220.106323 
	C656.665100,219.345520 656.129333,218.518753 654.951355,216.884048 
	C666.179565,210.671677 677.138184,204.608459 688.411133,198.352921 
z"/>
<path fill="#000000" opacity="1.000000" stroke="none" 
	d="
M297.238983,694.797852 
	C277.558167,668.744507 258.111023,642.972778 238.650162,617.211365 
	C234.956955,612.322449 235.012024,612.340332 240.256439,609.102600 
	C254.982742,600.011230 269.711884,590.921448 284.302643,581.615784 
	C287.461853,579.600952 289.147552,580.114014 291.209717,582.990723 
	C310.120361,609.371765 330.339996,634.762878 350.039978,660.547485 
	C353.932098,665.641785 353.850037,665.736023 348.435699,669.064514 
	C333.836304,678.039734 319.223694,686.995483 304.731873,696.142090 
	C301.686951,698.064026 299.415009,698.755981 297.238983,694.797852 
z"/>
<path fill="#000000" opacity="1.000000" stroke="none" 
	d="
M665.892090,258.132507 
	C678.524536,273.494019 690.928711,288.581940 703.355652,303.697601 
	C700.790405,306.003571 698.901489,304.773438 697.062683,304.393127 
	C678.796021,300.615051 662.059998,292.589966 645.322571,284.888733 
	C625.944214,275.972351 605.815918,271.210693 584.638794,270.254517 
	C583.027771,270.181763 581.264343,270.477234 579.387573,268.555328 
	C587.324890,251.055023 590.575012,232.839050 581.833069,214.452927 
	C583.822876,212.048752 586.136414,212.761414 588.159119,212.925156 
	C603.812195,214.192184 619.133362,217.075699 633.969482,222.386658 
	C636.806213,223.402145 638.823730,225.165161 640.638245,227.376373 
	C648.977783,237.539078 657.321533,247.698349 665.892090,258.132507 
z"/>
<path fill="#000000" opacity="1.000000" stroke="none" 
	d="
M801.847290,800.405396 
	C801.871155,794.994385 801.938782,790.005066 801.894897,785.016724 
	C801.866699,781.807983 803.049011,780.016357 806.547302,780.031555 
	C810.056091,780.046875 811.141785,781.842957 811.110657,785.064331 
	C811.009460,795.539978 811.044861,806.016968 810.969971,816.492981 
	C810.955139,818.573853 811.517090,821.195801 808.759583,821.966370 
	C805.942200,822.753662 803.258057,822.511108 801.221375,819.723938 
	C796.514160,813.282166 791.633728,806.966919 786.820618,800.602600 
	C786.029297,799.556091 785.222839,798.520996 783.441406,796.202881 
	C783.441406,804.067322 783.303101,810.551086 783.507202,817.024109 
	C783.593018,819.745117 783.960083,822.010010 780.197510,822.267395 
	C776.521667,822.518799 775.054565,820.977234 775.055847,817.395874 
	C775.059326,807.252197 774.887207,797.108337 774.922363,786.965027 
	C774.930359,784.674255 773.880981,781.591675 777.465637,780.821533 
	C780.772583,780.111023 783.472168,780.794556 785.592346,784.006775 
	C789.618652,790.106873 794.057190,795.935181 798.336670,801.867676 
	C799.086914,802.907654 799.658264,804.153442 801.020142,804.633728 
	C802.318909,803.484436 801.616333,802.059204 801.847290,800.405396 
z"/>
<path fill="#000000" opacity="1.000000" stroke="none" 
	d="
M556.240601,804.455872 
	C556.591370,798.166138 556.792175,792.021790 556.736206,785.879822 
	C556.706116,782.585388 557.408325,780.432068 561.290588,780.312561 
	C565.310303,780.188843 565.359802,782.665894 565.345825,785.546143 
	C565.294739,796.030090 565.352112,806.514526 565.281921,816.998230 
	C565.269348,818.864014 565.984619,821.329041 563.290466,822.027161 
	C560.554077,822.736267 558.119202,822.238525 556.246521,819.676697 
	C551.436218,813.096497 546.482605,806.621155 541.575378,800.112000 
	C541.105042,799.488098 540.825073,798.612976 539.184448,798.555969 
	C539.184448,804.813782 539.038757,811.055481 539.237305,817.286255 
	C539.362854,821.225403 537.811890,822.713867 533.928467,822.376892 
	C531.491516,822.165344 530.419800,821.377502 530.416626,818.732239 
	C530.403870,808.096985 530.133789,797.462158 530.098328,786.826660 
	C530.091125,784.657104 529.346008,781.756287 532.406738,780.919617 
	C535.663208,780.029419 538.422791,780.684387 540.564209,783.912598 
	C545.319824,791.081665 550.069580,798.284485 556.240601,804.455872 
z"/>
<path fill="#000000" opacity="1.000000" stroke="none" 
	d="
M235.968811,822.298950 
	C221.429626,820.150879 214.186234,802.244019 222.726013,788.537354 
	C226.823730,781.960266 236.859650,778.620667 245.373260,780.731018 
	C253.999680,782.869507 260.577301,790.219238 261.316467,798.545776 
	C262.698700,814.116516 252.080841,824.249756 235.968811,822.298950 
M239.522217,788.713013 
	C238.701843,788.845154 237.860245,788.900757 237.064529,789.121643 
	C231.283707,790.726501 227.729980,796.219421 228.344833,802.545288 
	C228.962418,808.899231 232.897720,813.390686 238.292557,813.898743 
	C245.235855,814.552795 250.069031,811.395874 251.981308,804.957642 
	C254.310028,797.117249 249.640244,790.667419 239.522217,788.713013 
z"/>
<path fill="#000000" opacity="1.000000" stroke="none" 
	d="
M315.649841,797.761475 
	C317.400970,810.259033 310.477966,820.431885 299.384064,822.224548 
	C286.157532,824.361816 276.059082,817.919861 273.883209,805.957214 
	C271.707916,793.997925 278.141815,783.405579 289.068695,780.956726 
	C301.654358,778.136169 312.528534,784.868713 315.649841,797.761475 
M301.902863,811.587646 
	C302.890869,810.470642 304.031860,809.453796 304.839996,808.219116 
	C308.087952,803.256470 307.186859,796.501343 302.817810,792.258301 
	C298.310913,787.881287 292.946503,787.354004 287.913483,790.793274 
	C282.038361,794.807983 280.685333,802.258484 284.621979,808.918274 
	C287.798431,814.291992 294.504456,815.557007 301.902863,811.587646 
z"/>
<path fill="#000000" opacity="1.000000" stroke="none" 
	d="
M511.108002,812.892334 
	C501.753571,825.239441 484.770935,826.232605 476.070862,815.258423 
	C469.469849,806.931946 469.832275,794.220764 476.884003,786.740295 
	C483.573059,779.644531 496.222900,778.484436 504.442352,784.212891 
	C513.459961,790.497620 516.366333,802.530029 511.108002,812.892334 
M501.453705,793.080811 
	C500.802460,792.569702 500.167969,792.035339 499.497162,791.551331 
	C495.109406,788.385681 490.600708,788.276611 486.038116,791.127441 
	C481.144958,794.184814 480.348236,798.941711 480.805115,804.153748 
	C481.267303,809.426636 484.324493,812.538330 489.228607,814.054016 
	C493.831635,815.476807 498.992096,813.740784 502.027924,809.751465 
	C505.641418,805.002991 505.622620,799.388611 501.453705,793.080811 
z"/>
<path fill="#000000" opacity="1.000000" stroke="none" 
	d="
M756.876953,790.369995 
	C759.249756,794.593384 760.117676,798.866516 759.913330,803.218018 
	C759.378662,814.605469 750.090515,822.843567 738.165955,822.793518 
	C727.255188,822.747742 718.101074,813.477844 717.808716,802.178955 
	C717.510376,790.649292 725.686646,781.556458 737.100464,780.727783 
	C745.390259,780.125916 752.198364,782.647339 756.876953,790.369995 
M728.856506,808.412415 
	C731.716858,812.877869 735.667725,815.264832 741.052246,814.250488 
	C748.331665,812.879089 752.098816,806.637146 750.615173,798.779053 
	C749.535034,793.057861 743.048096,788.452332 737.233276,789.278381 
	C731.150085,790.142456 726.671875,796.505432 727.407715,803.402283 
	C727.564026,804.867371 728.139954,806.287659 728.856506,808.412415 
z"/>
<path fill="#000000" opacity="1.000000" stroke="none" 
	d="
M354.986877,782.655762 
	C365.132782,787.971130 369.154327,795.988525 367.094025,806.191772 
	C365.304596,815.053528 357.373505,821.238892 346.607697,822.168884 
	C330.755920,823.538208 330.749664,823.538269 330.755066,807.903503 
	C330.757660,800.427795 330.866455,792.951050 330.772430,785.476746 
	C330.730530,782.147034 331.942200,780.531799 335.432037,780.701782 
	C341.857971,781.014893 348.422424,779.775696 354.986877,782.655762 
M346.201294,789.020142 
	C343.671417,789.118164 340.328979,788.104004 340.052826,792.099854 
	C339.653351,797.880310 339.609955,803.690918 339.601318,809.488953 
	C339.598969,811.060303 339.836548,812.790894 341.809052,813.559937 
	C346.841675,815.522095 354.264282,812.712769 356.924042,807.748230 
	C361.197144,799.772217 356.822571,791.526367 346.201294,789.020142 
z"/>
<path fill="#000000" opacity="1.000000" stroke="none" 
	d="
M454.463562,814.315186 
	C449.696320,820.270203 443.510712,822.164001 436.573639,822.278748 
	C421.705444,822.524719 421.706696,822.513611 421.710388,807.717163 
	C421.712219,800.395142 421.834961,793.070007 421.651489,785.752502 
	C421.561432,782.160950 422.752258,780.468567 426.500031,780.695435 
	C430.480774,780.936462 434.527374,780.567993 438.455933,781.111206 
	C455.625702,783.485352 463.135590,798.854004 454.463562,814.315186 
M442.402039,813.134827 
	C448.309692,809.492310 450.549500,803.624268 448.394958,797.434143 
	C446.651398,792.424805 439.682098,788.293457 433.945709,788.718872 
	C431.109680,788.929138 430.339294,790.589233 430.340576,793.049988 
	C430.342987,797.690063 430.308533,802.330200 430.311554,806.970276 
	C430.316833,815.117310 431.157074,815.779175 439.282104,814.068909 
	C440.091949,813.898376 440.888519,813.664795 442.402039,813.134827 
z"/>
<path fill="#000000" opacity="1.000000" stroke="none" 
	d="
M594.605591,813.345703 
	C593.822876,814.658020 593.281128,815.685059 592.843811,816.754761 
	C590.374329,822.795044 589.389954,823.254761 582.425171,821.384705 
	C581.945801,817.935608 583.866882,815.061096 585.090698,812.096741 
	C588.961365,802.720642 593.153503,793.476868 596.989563,784.087158 
	C598.214111,781.089783 600.186279,780.155029 603.132141,780.152283 
	C605.982666,780.149719 607.640137,781.280518 608.686951,784.082092 
	C612.644287,794.673096 616.914429,805.147522 620.854248,815.744812 
	C621.541382,817.593262 623.776367,820.425232 620.302368,821.673279 
	C617.235596,822.774963 613.750488,822.832336 612.776917,818.503784 
	C611.584778,813.203918 608.282349,811.635864 603.254089,812.368958 
	C600.490906,812.771851 597.597656,811.811707 594.605591,813.345703 
M606.039490,801.267578 
	C604.988770,798.599304 603.937988,795.931030 602.734070,792.873840 
	C600.415771,795.495056 599.788452,798.081055 598.914612,800.537903 
	C598.281921,802.316833 597.622742,804.557983 600.470886,804.552917 
	C602.525391,804.549255 606.187134,806.797852 606.039490,801.267578 
z"/>
<path fill="#000000" opacity="1.000000" stroke="none" 
	d="
M192.999115,780.693115 
	C197.157745,780.704895 200.818954,780.718689 204.480148,780.726807 
	C206.615738,780.731506 208.510040,780.898621 208.475739,783.839172 
	C208.443329,786.617981 207.989990,788.868958 204.530014,788.890747 
	C200.370377,788.916992 196.208160,789.062927 192.052002,788.959412 
	C188.420792,788.868774 186.460464,790.125183 186.369720,794.074768 
	C186.269592,798.432739 189.247543,797.734192 191.827637,797.775330 
	C195.321381,797.831116 198.816544,797.809326 202.311035,797.800903 
	C204.896149,797.794678 205.855698,799.277466 205.789841,801.626709 
	C205.725555,803.919922 204.823151,805.408569 202.197342,805.367065 
	C198.370926,805.306519 194.539124,805.475403 190.716064,805.349792 
	C187.467712,805.243164 186.214630,806.678955 186.351379,809.841980 
	C186.480621,812.831055 186.288467,815.832703 186.352402,818.826355 
	C186.426315,822.287231 184.161606,822.338013 181.656631,822.304138 
	C179.185699,822.270630 177.569046,821.727966 177.560959,818.678833 
	C177.531372,807.534546 177.333466,796.390442 177.156631,785.246948 
	C177.108597,782.220337 178.196838,780.556458 181.519272,780.681213 
	C185.175064,780.818542 188.840469,780.699890 192.999115,780.693115 
z"/>
<path fill="#000000" opacity="1.000000" stroke="none" 
	d="
M651.645813,816.823730 
	C651.610596,808.866455 651.483215,801.389343 651.585693,793.915344 
	C651.635742,790.265869 650.208679,788.745850 646.529968,789.131836 
	C644.730042,789.320679 642.871338,789.174927 641.060547,788.981628 
	C638.530823,788.711609 637.936890,786.898621 637.937988,784.682617 
	C637.939087,782.376953 638.712219,780.751404 641.317993,780.749634 
	C650.953552,780.743103 660.589233,780.783569 670.224670,780.758667 
	C672.783508,780.752075 673.811035,782.149841 673.898560,784.462402 
	C673.988220,786.832764 673.428528,788.806152 670.544800,789.032166 
	C670.379272,789.045105 670.210693,789.046997 670.049194,789.080994 
	C666.927795,789.738098 662.816772,787.464539 660.789307,790.719788 
	C659.080811,793.462952 660.284546,797.219910 660.237122,800.524170 
	C660.158447,806.005249 660.213135,811.489136 660.279358,816.971008 
	C660.314636,819.895142 660.011169,822.235291 656.125488,822.239502 
	C652.557068,822.243408 651.377258,820.549561 651.645813,816.823730 
z"/>
<path fill="#000000" opacity="1.000000" stroke="none" 
	d="
M691.729126,793.019836 
	C691.727478,790.358887 691.824585,788.188843 691.712585,786.029663 
	C691.523926,782.393494 692.680115,780.493835 696.799133,780.556946 
	C701.084534,780.622559 701.105469,783.225098 701.102905,786.222046 
	C701.094177,796.381653 701.065308,806.541565 701.148621,816.700562 
	C701.174561,819.869690 700.861633,822.271179 696.723145,822.243896 
	C692.595703,822.216675 691.722900,820.032654 691.765198,816.499146 
	C691.856995,808.839172 691.755920,801.176941 691.729126,793.019836 
z"/>
<path fill="#000000" opacity="1.000000" stroke="none" 
	d="
M427.129822,480.725525 
	C425.620422,472.270081 424.293762,464.220245 422.736816,456.215210 
	C422.009430,452.475433 422.730560,450.608887 427.049072,450.622284 
	C464.859009,450.739380 502.669373,450.759613 540.479492,450.717133 
	C544.226685,450.712921 545.661133,452.118958 545.081055,455.813873 
	C542.862183,469.947571 540.653748,484.083282 538.546204,498.233826 
	C538.114380,501.133026 536.653564,502.128845 533.848877,502.124847 
	C501.035858,502.078064 468.222687,502.072357 435.409637,502.119568 
	C432.323517,502.124023 430.888062,500.741302 430.376312,497.821045 
	C429.400055,492.250458 428.279114,486.705200 427.129822,480.725525 
z"/>
<path fill="#000000" opacity="1.000000" stroke="none" 
	d="
M520.000000,417.698303 
	C531.156372,417.714294 541.814148,417.836243 552.468323,417.689606 
	C556.546204,417.633453 558.246948,419.266876 558.148621,423.280060 
	C558.034485,427.938934 558.070984,432.604553 558.168945,437.264587 
	C558.245178,440.891815 556.555481,442.340088 552.999023,442.262024 
	C547.507080,442.141449 542.010437,442.233337 536.515808,442.235474 
	C496.887482,442.250946 457.259125,442.262085 417.630798,442.284698 
	C406.507874,442.291046 407.806427,442.614288 407.732941,432.181610 
	C407.714203,429.517639 407.717773,426.853424 407.724426,424.189362 
	C407.740234,417.856720 407.873474,417.704041 414.101624,417.701355 
	C442.740601,417.688995 471.379608,417.688049 500.018585,417.685242 
	C506.512390,417.684601 513.006165,417.692963 520.000000,417.698303 
z"/>
<path fill="#000000" opacity="1.000000" stroke="none" 
	d="
M524.498840,400.324280 
	C513.215454,396.170258 505.938629,398.357239 499.405396,407.601135 
	C497.700073,410.013977 490.588196,411.542938 488.122620,409.888885 
	C485.837769,408.356049 487.019318,406.325195 487.734406,404.523254 
	C492.288116,393.048126 506.807648,384.988312 519.643738,387.209900 
	C530.547974,389.097137 539.286865,394.453613 544.151550,404.848175 
	C546.127319,409.069946 545.313354,410.109406 540.647827,410.321503 
	C536.694763,410.501221 533.161560,410.497803 531.334900,405.740570 
	C530.338623,403.145813 527.366638,401.820648 524.498840,400.324280 
z"/>
<path fill="#000000" opacity="1.000000" stroke="none" 
	d="
M432.657318,392.545837 
	C450.232758,382.322693 467.128754,386.126434 477.028412,402.371307 
	C478.407318,404.634094 481.185638,407.852753 477.816010,409.635773 
	C474.924255,411.166016 470.660187,411.654907 467.737061,408.241455 
	C466.983063,407.360992 466.438385,406.303131 465.700073,405.407135 
	C457.297729,395.210938 440.627747,396.309601 433.585236,407.509735 
	C431.651672,410.584717 426.541016,411.927795 423.601868,410.168427 
	C421.628601,408.987213 422.312622,407.306396 422.786804,405.749664 
	C424.445526,400.304199 427.644531,395.959930 432.657318,392.545837 
z"/>
<path fill="#000000" opacity="1.000000" stroke="none" 
	d="
M454.553375,404.135193 
	C457.076721,405.388458 459.625549,406.085144 460.343903,409.665344 
	C453.385437,409.665344 446.619171,409.665344 439.806854,409.665344 
	C441.541992,404.594910 447.097198,402.437592 454.553375,404.135193 
z"/>
<path fill="#000000" opacity="1.000000" stroke="none" 
	d="
M507.254089,406.144409 
	C515.416931,401.729858 523.144287,403.100739 526.237122,409.728455 
	C519.183594,409.728455 512.369324,409.728455 505.546936,409.728455 
	C504.724396,408.050140 506.036530,407.305664 507.254089,406.144409 
z"/>
<path fill="#000000" opacity="1.000000" stroke="none" 
	d="
M605.811279,424.931824 
	C614.364807,430.752319 620.960938,437.950165 625.231140,447.541138 
	C611.184937,447.429291 592.344482,433.091858 589.734314,420.914551 
	C606.898010,411.764191 620.054871,416.172638 626.958252,433.387024 
	C634.467957,414.317413 649.878601,413.486877 664.622620,420.095917 
	C660.040588,438.241699 644.109619,442.352142 629.328796,448.121460 
	C632.707825,438.926758 639.089050,431.974243 646.662964,425.420166 
	C635.168457,427.050964 629.309692,433.938873 626.902344,445.056610 
	C624.166077,433.144073 617.623657,426.063568 605.811279,424.931824 
z"/>
<path fill="#000000" opacity="1.000000" stroke="none" 
	d="
M631.972412,398.274841 
	C635.780945,405.654419 635.653442,412.370758 630.240662,418.526245 
	C627.394470,421.762909 625.170532,421.633179 622.495911,418.248077 
	C616.857056,411.111420 618.828003,398.592468 626.693054,392.217316 
	C629.490845,393.102844 630.247986,395.885345 631.972412,398.274841 
z"/>
<path fill="#000000" opacity="1.000000" stroke="none" 
	d="
M631.683167,519.006165 
	C633.095947,511.710632 638.919312,507.596954 643.890320,509.966766 
	C648.028320,511.939423 650.651001,516.621460 649.769531,520.462280 
	C648.793884,524.713501 644.605530,528.087708 640.398376,528.011780 
	C635.921387,527.930969 632.895508,524.948181 631.683167,519.006165 
z"/>
<path fill="#000000" opacity="1.000000" stroke="none" 
	d="
M646.138550,465.184814 
	C642.461731,468.153015 639.043091,468.656769 635.598267,465.505432 
	C632.430359,462.607483 630.445557,459.147705 632.379211,454.924896 
	C634.082458,451.205078 637.297852,449.131134 641.574280,449.382141 
	C645.899292,449.635986 648.536804,452.063599 649.764160,456.156219 
	C650.904297,459.957855 648.703369,462.453705 646.138550,465.184814 
z"/>
<path fill="#000000" opacity="1.000000" stroke="none" 
	d="
M653.865601,465.451935 
	C659.068787,464.160919 662.736450,465.877350 665.077454,470.111603 
	C666.955750,473.509033 666.397705,476.874664 663.804443,479.743805 
	C661.286316,482.529938 658.101929,483.685242 654.394531,482.698181 
	C650.627930,481.695312 648.380310,479.004364 648.056946,475.271027 
	C647.688843,471.022125 649.383972,467.526337 653.865601,465.451935 
z"/>
<path fill="#000000" opacity="1.000000" stroke="none" 
	d="
M618.584229,511.376953 
	C622.829468,516.033081 623.447388,520.235596 620.440552,524.037170 
	C617.846497,527.316833 614.506775,528.789429 610.350769,527.073181 
	C604.997131,524.862366 603.062622,519.960327 605.478149,514.884338 
	C608.018433,509.546448 612.337463,508.282440 618.584229,511.376953 
z"/>
<path fill="#000000" opacity="1.000000" stroke="none" 
	d="
M605.739685,475.493347 
	C601.474243,483.610626 594.102722,485.493164 589.889282,479.818146 
	C587.344238,476.390350 587.169006,472.696625 589.565002,469.132263 
	C591.579590,466.135315 594.516052,464.478516 598.130493,465.518707 
	C602.814514,466.866608 605.969482,469.766144 605.739685,475.493347 
z"/>
<path fill="#000000" opacity="1.000000" stroke="none" 
	d="
M617.818298,464.760986 
	C614.183411,467.718811 610.770630,469.435638 606.986633,465.741821 
	C603.677917,462.511963 602.481262,458.726166 604.700989,454.491669 
	C606.783142,450.519287 610.357422,448.742249 614.696899,449.935852 
	C618.910217,451.094757 621.331360,454.104340 621.376038,458.714630 
	C621.401123,461.305084 620.079529,463.079407 617.818298,464.760986 
z"/>
<path fill="#000000" opacity="1.000000" stroke="none" 
	d="
M604.363525,493.588318 
	C609.048828,498.834808 609.280579,502.865814 605.385498,506.374023 
	C601.656555,509.732574 595.747375,509.349762 592.376526,505.531219 
	C589.127502,501.850708 589.607483,496.254974 593.523438,493.115234 
	C597.066406,490.274597 600.603516,490.875275 604.363525,493.588318 
z"/>
<path fill="#000000" opacity="1.000000" stroke="none" 
	d="
M664.870117,497.625549 
	C665.825134,502.223145 663.901489,505.098358 660.386902,507.046539 
	C655.931152,509.516388 650.954102,508.504089 648.366272,504.741882 
	C645.864624,501.105011 646.899292,496.900421 651.153320,493.415802 
	C654.660278,490.543182 659.486145,490.883240 662.835510,494.347260 
	C663.624329,495.163116 664.109924,496.272125 664.870117,497.625549 
z"/>
<path fill="#000000" opacity="1.000000" stroke="none" 
	d="
M634.250244,492.721771 
	C629.946167,487.403442 629.989685,486.289551 634.400940,482.052826 
	C639.187439,477.455719 640.402466,477.359009 645.262573,481.613495 
	C647.330200,483.423492 650.504028,485.162262 649.224365,488.423615 
	C647.845337,491.938080 645.471802,495.279968 641.857483,496.829681 
	C638.310547,498.350525 636.568665,495.055420 634.250244,492.721771 
z"/>
<path fill="#000000" opacity="1.000000" stroke="none" 
	d="
M619.973145,491.888123 
	C618.527283,493.313049 617.372864,494.518005 616.140869,495.637604 
	C614.200073,497.401245 612.276062,497.388672 610.485718,495.387604 
	C609.486206,494.270538 608.696960,492.877380 607.511597,492.030396 
	C603.161255,488.921997 603.566528,486.347015 607.221375,482.588501 
	C612.413269,477.249329 614.292175,476.935608 619.858948,482.142609 
	C623.285339,485.347565 624.285217,488.299957 619.973145,491.888123 
z"/>
<path fill="#000000" opacity="1.000000" stroke="none" 
	d="
M632.664429,497.390808 
	C635.609131,500.476196 636.959534,503.109833 633.228027,506.411163 
	C627.062988,511.865509 626.084045,512.263428 621.719727,508.225922 
	C619.643921,506.305420 616.012939,504.617462 617.233521,501.203308 
	C618.573486,497.455017 621.787781,494.552917 625.408325,492.950043 
	C629.011047,491.355042 630.420410,495.119263 632.664429,497.390808 
z"/>
<path fill="#000000" opacity="1.000000" stroke="none" 
	d="
M628.274414,481.459473 
	C624.943481,481.532837 617.787842,476.718750 617.015991,474.267822 
	C616.124451,471.436798 623.213135,463.674438 626.556396,464.312347 
	C630.497925,465.064362 633.340088,467.862427 635.108765,471.373566 
	C636.751831,474.635468 634.200134,476.602722 632.106445,478.509644 
	C631.005554,479.512299 629.776123,480.373871 628.274414,481.459473 
z"/>
<path fill="#000000" opacity="1.000000" stroke="none" 
	d="
M353.280365,436.726746 
	C360.043732,447.066956 369.353271,454.991974 375.293213,465.534241 
	C385.422302,483.511536 380.090515,506.381653 363.404572,515.992065 
	C350.475983,523.438354 333.533691,521.814209 322.915924,512.110596 
	C311.101990,501.313782 307.687592,483.716827 314.471710,469.042175 
	C317.376617,462.758636 321.651215,457.414917 326.108917,452.269623 
	C333.000916,444.314636 339.744080,436.322113 343.838867,426.463470 
	C344.123688,425.777832 344.848969,425.275116 345.771576,424.233124 
	C348.356384,428.545074 350.719116,432.486511 353.280365,436.726746 
z"/>
<path fill="#000000" opacity="1.000000" stroke="none" 
	d="
M358.656067,338.974731 
	C360.836517,340.515076 362.688110,341.872162 364.667053,343.322601 
	C365.433167,342.758392 366.098907,342.289246 366.742157,341.791077 
	C372.442993,337.375946 378.577667,334.612915 385.604828,338.384399 
	C392.905792,342.302826 396.057678,349.068390 396.052429,356.989471 
	C396.042419,372.041107 380.643463,388.061371 365.639496,389.202606 
	C360.929260,389.560883 356.725098,387.946320 352.878723,385.608093 
	C341.307556,378.574005 333.057281,369.235535 333.781830,354.689636 
	C334.462158,341.031219 345.617493,333.960846 358.656067,338.974731 
z"/>
</svg>